       <svg width="135" height="33" viewBox="0 0 135 33" fill="none" xmlns="http://www.w3.org/2000/svg">
            <path fill-rule="evenodd" clip-rule="evenodd" d="M49.4197 14.5486V25.3125H43.6081V15.2171C43.6081 13.7046 42.9123 12.7545 41.4504 12.7545C39.8148 12.7545 39.0494 13.9506 39.0494 15.7099V25.3125H33.2722V15.2171C33.2722 13.7046 32.5412 12.7545 31.0801 12.7545C29.4789 12.7545 28.6791 13.9506 28.6791 15.7099V25.3125H22.9019V7.7242H28.6791V9.37832C29.6182 8.11103 31.1498 7.23218 33.3771 7.23218C35.4298 7.23218 36.8917 8.04143 37.8309 9.48352C38.9101 8.14663 40.4761 7.23218 42.8771 7.23218C46.8794 7.23218 49.4197 9.97555 49.4197 14.5486Z" fill="#FF296A"/>
            <mask id="mask0" mask-type="alpha" maskUnits="userSpaceOnUse" x="0" y="0" width="135" height="33">
            <path fill-rule="evenodd" clip-rule="evenodd" d="M0 32.5446H135V0H0V32.5446Z" fill="white"/>
            </mask>
            <g mask="url(#mask0)">
            <path fill-rule="evenodd" clip-rule="evenodd" d="M72.8113 25.3127H79.0642V8.02238H72.8113V25.3127ZM72.3218 3.28479C72.3218 1.48686 73.9795 0 75.9378 0C77.8962 0 79.5539 1.48686 79.5539 3.28479C79.5539 5.0835 77.8962 6.60458 75.9378 6.60458C73.9795 6.60458 72.3218 5.0835 72.3218 3.28479Z" fill="#FF296A"/>
            <path fill-rule="evenodd" clip-rule="evenodd" d="M88.6454 7.6308H91.607V13.2532H88.6454V25.3125H82.9281V13.2532H80.7588V7.6308H82.9281C82.9281 2.68034 85.7527 -0.325728 91.607 0.0281662V5.47326C89.7815 5.3317 88.6454 6.00369 88.6454 7.6308Z" fill="#FF296A"/>
            <path fill-rule="evenodd" clip-rule="evenodd" d="M94.5073 25.3127H100.76V8.02238H94.5073V25.3127ZM94.0176 3.28479C94.0176 1.48686 95.6753 0 97.6336 0C99.592 0 101.25 1.48686 101.25 3.28479C101.25 5.0835 99.592 6.60458 97.6336 6.60458C95.6753 6.60458 94.0176 5.0835 94.0176 3.28479Z" fill="#FF296A"/>
            <path fill-rule="evenodd" clip-rule="evenodd" d="M114.509 7.23218V13.7551C112.243 13.4003 109.36 14.4638 109.36 17.974V25.3125H103.661V7.58695H109.36V10.8843C110.046 8.47347 112.209 7.23218 114.509 7.23218Z" fill="#FF296A"/>
            <path fill-rule="evenodd" clip-rule="evenodd" d="M128.205 14.4227C127.687 12.6422 126.342 12.0254 124.961 12.0254C123.305 12.0254 122.063 12.8471 121.58 14.4227H128.205ZM125.513 20.4501C126.755 20.4501 127.825 20.0397 128.653 19.2519L132.794 22.1282C131.069 24.2852 128.446 25.3125 125.375 25.3125C119.406 25.3125 115.714 21.375 115.714 16.307C115.714 11.1697 119.51 7.23218 124.892 7.23218C130.068 7.23218 133.795 11.1019 133.795 16.2377C133.795 16.957 133.726 17.6424 133.553 18.3616H121.649C122.339 20.005 123.857 20.4501 125.513 20.4501Z" fill="#FF296A"/>
            <path fill-rule="evenodd" clip-rule="evenodd" d="M57.8569 19.2859C58.156 19.8242 58.5632 20.2424 59.0623 20.4912C58.5812 20.2217 58.1702 19.8035 57.8569 19.2859Z" fill="#FF296A"/>
            <path fill-rule="evenodd" clip-rule="evenodd" d="M57.8569 14.4641C58.1702 13.9465 58.5812 13.5283 59.0623 13.2588C58.5632 13.5077 58.156 13.9259 57.8569 14.4641Z" fill="#FF296A"/>
            <path fill-rule="evenodd" clip-rule="evenodd" d="M66.2639 17.3559L63.744 17.3445C63.5348 17.3428 63.3461 17.258 63.2104 17.121C63.074 16.9831 62.9906 16.7947 62.9914 16.5859C62.9931 16.1692 63.3338 15.8331 63.7513 15.8348L66.2712 15.847C66.6888 15.8486 67.0254 16.1879 67.0238 16.6047C67.0213 17.0215 66.6814 17.3575 66.2639 17.3559ZM64.5618 21.4036C64.2652 21.6964 63.7864 21.6947 63.4923 21.3978L61.787 19.6793C61.4929 19.3833 61.4953 18.9061 61.7919 18.6125C62.0885 18.3189 62.5673 18.3214 62.8615 18.6174L64.5667 20.3359C64.8609 20.632 64.8584 21.1099 64.5618 21.4036ZM58.4142 14.2418C58.7942 13.6897 59.3114 13.2606 59.9454 13.0062C59.3343 13.2818 58.8113 13.7109 58.4142 14.2418ZM58.4142 18.9398C58.8113 19.4708 59.3343 19.8998 59.9454 20.1763C59.3114 19.921 58.7942 19.492 58.4142 18.9398ZM61.8165 13.481L63.5381 11.7788C63.8347 11.4852 64.3127 11.4876 64.6068 11.7837C64.901 12.0798 64.8985 12.5577 64.6019 12.8505L62.8803 14.5535C62.5837 14.8463 62.1049 14.8439 61.8108 14.5486C61.5174 14.2517 61.5199 13.7746 61.8165 13.481ZM62.7692 7.23218C60.4961 7.23218 58.8627 8.0119 57.7262 9.35929V7.72807H51.8301V32.5447H57.7262V23.8233C58.8627 25.1707 60.4961 25.9505 62.7692 25.9505C67.528 25.9505 71.1158 21.9091 71.1158 16.5913C71.1158 11.2735 67.528 7.23218 62.7692 7.23218Z" fill="#FF296A"/>
            <path fill-rule="evenodd" clip-rule="evenodd" d="M9.97256 19.6339C8.04668 19.6339 6.48605 18.1285 6.48605 16.2724C6.48605 14.4156 8.04668 12.9102 9.97256 12.9102C11.8984 12.9102 13.4591 14.4156 13.4591 16.2724C13.4591 18.1285 11.8984 19.6339 9.97256 19.6339ZM13.3904 7.71194V9.28671C12.2539 7.9853 10.6197 7.23218 8.34655 7.23218C3.58783 7.23218 0 11.1356 0 16.2727C0 21.4091 3.58783 25.3125 8.34655 25.3125C10.6197 25.3125 12.2539 24.5594 13.3904 23.258V24.8336H19.2857V7.71194H13.3904Z" fill="#FF296A"/>
            </g>
       </svg>